<?xml version="1.0" encoding="UTF-8"?>
<svg width="132px" height="28px" viewBox="0 0 132 28" version="1.1" xmlns="http://www.w3.org/2000/svg" xmlns:xlink="http://www.w3.org/1999/xlink">
    <!-- Generator: Sketch 52.6 (67491) - http://www.bohemiancoding.com/sketch -->
    <title>b-logo</title>
    <desc>Created with Sketch.</desc>
    <g id="Mobile-HP" stroke="none" stroke-width="1" fill="none" fill-rule="evenodd">
        <g id="Brand-Logo/Small">
            <g id="marmalade-mobile-logo">
                <path d="M34.2768696,15.1467826 C34.2768696,14.0170435 34.0650435,13.685913 33.8994783,13.5373913 C33.6876522,13.3426087 33.4587826,13.362087 33.4587826,12.901913 C33.4587826,11.5944348 37.52,11.1001739 37.5516522,11.1001739 C37.9606957,11.1001739 37.9923478,11.4897391 37.9923478,11.8598261 C37.9923478,12.0716522 37.9266087,12.6730435 38.269913,12.6730435 C38.4354783,12.6730435 38.696,12.2834783 39.1537391,11.8768696 C39.7273145,11.370364 40.4678668,11.0937408 41.2330435,11.1001739 C43.1808696,11.1001739 43.197913,12.6730435 43.5412174,12.6730435 C43.6726957,12.6730435 43.9673043,12.2834783 44.442087,11.8768696 C44.9939795,11.3981399 45.6937911,11.1238894 46.424,11.1001739 C47.9798261,11.1001739 48.9464348,12.018087 48.9464348,13.7516522 L48.9464348,17.4793043 C48.9464348,18.5043478 49.5526957,18.5944348 49.5526957,19.1057391 C49.5526957,20.2184348 47.6852174,20.272 47.0473043,20.272 C46.5067826,20.272 44.6125217,20.1478261 44.6125217,19.229913 C44.6125217,18.5773913 45.1846957,18.5944348 45.1846957,17.5693913 L45.1846957,15.9770435 C45.1846957,15.2466087 45.2650435,13.7492174 44.3325217,13.7492174 C43.4,13.7492174 43.4973913,14.952 43.4973913,15.6045217 L43.4973913,16.7026087 C43.4973913,18.8768696 44.0866087,18.5043478 44.0866087,19.1593043 C44.0866087,20.2549565 42.1217391,20.272 41.5325217,20.272 C39.0612174,20.272 38.9297391,19.7850435 38.9443478,19.2834783 C38.9613913,18.346087 39.7794783,19.0886957 39.7307826,16.9850435 L39.7307826,15.9770435 C39.7307826,15.3415652 39.8135652,13.7492174 38.8786087,13.7492174 C37.9436522,13.7492174 38.0434783,14.952 38.0434783,15.6045217 L38.0434783,17.0434783 C38.0434783,18.669913 38.4866087,18.5627826 38.4866087,19.2006957 C38.4866087,19.6608696 38.1092174,20.2793043 35.8643478,20.2793043 C35.2264348,20.2793043 33.2932174,20.2963478 33.2932174,19.3589565 C33.2932174,18.5627826 34.2671304,18.9888696 34.2671304,16.778087 L34.2671304,15.1467826 L34.2768696,15.1467826 Z M53.3704348,17.4086957 C53.3704348,17.8688696 53.6017391,18.3631304 54.074087,18.3631304 C54.6973913,18.3631304 54.746087,17.6326957 54.746087,17.1067826 C54.746087,16.7172174 54.7631304,16.2765217 54.3029565,16.2765217 C53.7453913,16.2765217 53.3704348,16.8438261 53.3704348,17.4086957 Z M58.2838261,15.8528696 C58.2838261,18.9645217 59.2577391,17.2674783 59.2577391,18.221913 C59.2577391,19.229913 57.981913,20.3255652 56.7864348,20.3255652 C55.4911304,20.3255652 55.4594783,19.4246957 55.0504348,19.4246957 C54.8532174,19.4246957 54.6413913,19.656 54.2810435,19.8653913 C53.8046535,20.1766573 53.2454703,20.33703 52.6765217,20.3255652 C51.317913,20.3255652 49.9593043,19.5464348 49.9593043,17.7982609 C49.9593043,16.541913 51.072,14.9885217 53.9547826,14.9885217 C54.4636522,14.9885217 54.6852174,15.0226087 54.6852174,14.3871304 C54.6852174,13.8052174 54.6681739,12.5853913 53.9158261,12.5853913 C52.941913,12.5853913 52.8372174,14.4942609 51.3787826,14.4942609 C51.1253163,14.494733 50.8829364,14.3903759 50.7090898,14.2059233 C50.5352433,14.0214707 50.4454056,13.7733424 50.4608696,13.5203478 C50.4608696,12.018087 53.2267826,11.0441739 54.7850435,11.0441739 C55.7175652,11.0441739 58.274087,11.4337391 58.274087,14.0852174 L58.274087,15.8528696 L58.2838261,15.8528696 Z M60.7721739,14.7206957 C60.7721739,12.9871304 59.7568696,13.9610435 59.7568696,12.8824348 C59.7568696,11.4873043 63.5892174,11.0977391 63.7353043,11.0977391 C64.3586087,11.0977391 64.3732174,11.2730435 64.4389565,11.8768696 C64.456,12.0886957 64.4389565,12.4953043 64.7165217,12.4953043 C65.1109565,12.4953043 65.3544348,11.1001739 66.7641739,11.1001739 C67.8622609,11.1001739 68.5829565,11.984 68.5829565,13.1502609 C68.6048732,14.2889455 67.7076828,15.2338703 66.5693913,15.2709565 C65.5053913,15.2709565 65.2083478,14.2629565 64.7846957,14.2629565 C64.3610435,14.2629565 64.4073043,15.4462609 64.4073043,15.7652174 C64.4146922,16.4164397 64.4585872,17.0667356 64.5387826,17.7130435 C64.6361739,18.4921739 65.8803478,18.0149565 65.8803478,19.074087 C65.8803478,20.1867826 64.4389565,20.2768696 62.6372174,20.2768696 C61.8848696,20.2768696 59.6570435,20.3109565 59.6570435,19.0911304 C59.6570435,18.3485217 60.4093913,18.3485217 60.5895652,17.730087 C60.7167251,17.0887755 60.7771053,16.436016 60.7697391,15.7822609 L60.7697391,14.7206957 L60.7721739,14.7206957 Z M69.8441739,15.1467826 C69.8441739,14.0170435 69.629913,13.685913 69.4667826,13.5373913 C69.2549565,13.3426087 69.0236522,13.362087 69.0236522,12.901913 C69.0236522,11.5944348 73.0848696,11.1001739 73.1165217,11.1001739 C73.528,11.1001739 73.5596522,11.4897391 73.5596522,11.8598261 C73.5596522,12.0716522 73.493913,12.6730435 73.8372174,12.6730435 C74.0003478,12.6730435 74.2633043,12.2834783 74.7234783,11.8768696 C75.2968123,11.3699619 76.0375246,11.093279 76.8027826,11.1001739 C78.7506087,11.1001739 78.7676522,12.6730435 79.1109565,12.6730435 C79.2424348,12.6730435 79.5370435,12.2834783 80.0118261,11.8768696 C80.5637187,11.3981399 81.2635302,11.1238894 81.9937391,11.1001739 C83.5495652,11.1001739 84.5161739,12.018087 84.5161739,13.7516522 L84.5161739,17.4793043 C84.5161739,18.5043478 85.1224348,18.5944348 85.1224348,19.1057391 C85.1224348,20.2184348 83.2549565,20.272 82.6170435,20.272 C82.0765217,20.272 80.1822609,20.1478261 80.1822609,19.229913 C80.1822609,18.5773913 80.7544348,18.5944348 80.7544348,17.5693913 L80.7544348,15.9770435 C80.7544348,15.2466087 80.8372174,13.7492174 79.9022609,13.7492174 C78.9673043,13.7492174 79.0671304,14.952 79.0671304,15.6045217 L79.0671304,16.7026087 C79.0671304,18.8768696 79.6563478,18.5043478 79.6563478,19.1593043 C79.6563478,20.2549565 77.6914783,20.272 77.1022609,20.272 C74.6309565,20.272 74.4994783,19.7850435 74.514087,19.2834783 C74.5311304,18.346087 75.3492174,19.0886957 75.3005217,16.9850435 L75.3005217,15.9770435 C75.3005217,15.3415652 75.3833043,13.7492174 74.4483478,13.7492174 C73.5133913,13.7492174 73.6132174,14.952 73.6132174,15.6045217 L73.6132174,17.0434783 C73.6132174,18.669913 74.053913,18.5627826 74.053913,19.2006957 C74.053913,19.6608696 73.6789565,20.2793043 71.434087,20.2793043 C70.7961739,20.2793043 68.8629565,20.2963478 68.8629565,19.3589565 C68.8629565,18.5627826 69.8368696,18.9888696 69.8368696,16.778087 L69.8368696,15.1467826 L69.8441739,15.1467826 Z M88.9377391,17.4086957 C88.9377391,17.8688696 89.1690435,18.3631304 89.6413913,18.3631304 C90.2646957,18.3631304 90.3133913,17.6326957 90.3133913,17.1067826 C90.3133913,16.7172174 90.3304348,16.2765217 89.8702609,16.2765217 C89.3126957,16.2765217 88.9377391,16.8438261 88.9377391,17.4086957 Z M93.8511304,15.8528696 C93.8511304,18.9645217 94.8250435,17.2674783 94.8250435,18.221913 C94.8250435,19.229913 93.5492174,20.3255652 92.3537391,20.3255652 C91.0584348,20.3255652 91.0267826,19.4246957 90.6177391,19.4246957 C90.4205217,19.4246957 90.2086957,19.656 89.8483478,19.8653913 C89.3719578,20.1766573 88.8127747,20.33703 88.2438261,20.3255652 C86.8852174,20.3255652 85.5266087,19.5464348 85.5266087,17.7982609 C85.5266087,16.541913 86.6393043,14.9885217 89.522087,14.9885217 C90.0285217,14.9885217 90.2525217,15.0226087 90.2525217,14.3871304 C90.2525217,13.8052174 90.2354783,12.5853913 89.4831304,12.5853913 C88.5092174,12.5853913 88.4045217,14.4942609 86.946087,14.4942609 C86.6926207,14.494733 86.4502407,14.3903759 86.2763942,14.2059233 C86.1025476,14.0214707 86.01271,13.7733424 86.0281739,13.5203478 C86.0281739,12.018087 88.794087,11.0441739 90.3523478,11.0441739 C91.2848696,11.0441739 93.8413913,11.4337391 93.8413913,14.0852174 L93.8413913,15.8528696 L93.8511304,15.8528696 Z M100.18887,16.9144348 C100.168693,17.310894 100.19073,17.7083748 100.254609,18.1001739 C100.434783,18.7356522 101.172522,18.4361739 101.172522,19.1787826 C101.172522,20.3645217 99.176,20.2744348 98.469913,20.2744348 C97.7638261,20.2744348 95.4434783,20.362087 95.4434783,19.1057391 C95.4434783,18.4873043 96.1471304,18.7161739 96.3443478,18.0636522 C96.5586087,17.3332174 96.5586087,15.1297391 96.5586087,14.2629565 C96.5586087,13.573913 96.5926957,12.2469565 96.4441739,11.4532174 C96.2006957,10.1457391 95.2267826,10.605913 95.2267826,9.59791304 C95.2267826,8.06156522 99.4852174,7.68904348 99.714087,7.68904348 C100.271652,7.68904348 100.40313,8.0786087 100.40313,8.6093913 C100.40313,9.016 100.18887,10.9589565 100.18887,13.4789565 L100.18887,16.9144348 Z M104.985391,17.4086957 C104.985391,17.8688696 105.216696,18.3631304 105.689043,18.3631304 C106.312348,18.3631304 106.361043,17.6326957 106.361043,17.1067826 C106.361043,16.7172174 106.378087,16.2765217 105.917913,16.2765217 C105.360348,16.2765217 104.985391,16.8438261 104.985391,17.4086957 Z M109.898783,15.8528696 C109.898783,18.9645217 110.872696,17.2674783 110.872696,18.221913 C110.872696,19.229913 109.59687,20.3255652 108.401391,20.3255652 C107.106087,20.3255652 107.074435,19.4246957 106.665391,19.4246957 C106.468174,19.4246957 106.256348,19.656 105.896,19.8653913 C105.41961,20.1766573 104.860427,20.33703 104.291478,20.3255652 C102.93287,20.3255652 101.574261,19.5464348 101.574261,17.7982609 C101.574261,16.541913 102.686957,14.9885217 105.569739,14.9885217 C106.078609,14.9885217 106.300174,15.0226087 106.300174,14.3871304 C106.300174,13.8052174 106.28313,12.5853913 105.530783,12.5853913 C104.55687,12.5853913 104.449739,14.4942609 102.993739,14.4942609 C102.740273,14.494733 102.497893,14.3903759 102.324046,14.2059233 C102.1502,14.0214707 102.060362,13.7733424 102.075826,13.5203478 C102.075826,12.018087 104.841739,11.0441739 106.4,11.0441739 C107.332522,11.0441739 109.889043,11.4337391 109.889043,14.0852174 L109.889043,15.8528696 L109.898783,15.8528696 Z M116.694261,12.9725217 C115.596174,12.9725217 115.401391,15.0055652 115.401391,15.8358261 C115.401391,16.666087 115.598609,18.1172174 116.618783,18.1172174 C117.71687,18.1172174 117.65113,15.9429565 117.65113,15.1662609 C117.65113,14.4772174 117.65113,12.9749565 116.701565,12.9749565 L116.694261,12.9725217 Z M121.252174,17.0897391 C121.252174,18.3266087 122.121391,17.92 122.121391,18.8403478 C122.121391,20.1843478 118.534957,20.272 118.354783,20.272 C117.519652,20.272 118.111304,19.298087 117.568348,19.298087 C117.422261,19.298087 117.176348,19.5415652 116.798957,19.8093913 C116.329256,20.1407302 115.769234,20.3200394 115.194435,20.3231304 C113.049391,20.3231304 111.37913,17.8664348 111.37913,15.6970435 C111.37913,13.3450435 113.146783,11.0466087 115.406261,11.0466087 C116.536,11.0466087 117.173913,11.5773913 117.354087,11.5773913 C117.597565,11.5773913 117.617043,10.9954783 117.617043,10.7982609 C117.617043,9.7026087 116.421565,10.2845217 116.421565,9.3373913 C116.421565,8.02991304 120.597217,7.69391304 120.645913,7.69391304 C121.13287,7.69391304 121.252174,8.064 121.252174,8.64834783 L121.252174,17.0970435 L121.252174,17.0897391 Z M128.042783,13.7833043 C128.042783,13.1478261 127.682435,12.6535652 127.06887,12.6535652 C126.528348,12.6535652 126.094957,13.2549565 126.094957,13.8198261 C126.094957,14.4553043 126.652522,14.3067826 127.06887,14.3067826 C127.485217,14.3067826 128.042783,14.413913 128.042783,13.776 L128.042783,13.7833043 Z M126.608696,16.0111304 C126.428522,16.0111304 126.168,15.9575652 126.168,16.2546087 C126.168,17.1384348 127.232,17.8810435 128.001391,17.8810435 C129.218783,17.8810435 129.834783,17.0848696 130.180522,17.0848696 C130.526261,17.0848696 130.818435,17.6326957 130.818435,17.9686957 C130.818435,19.3297391 128.507826,20.3182609 127.034783,20.3182609 C124.086261,20.3182609 122.564522,18.0198261 122.564522,15.7408696 C122.544341,14.5051404 123.019463,13.3127145 123.883945,12.4294791 C124.748427,11.5462438 125.930383,11.0456443 127.166261,11.0393043 C129.949217,11.0393043 131.178783,13.3547826 131.178783,14.6914783 C131.178783,15.8577391 130.691826,16.0184348 130.163478,16.0184348 L126.608696,16.0184348 L126.608696,16.0111304 Z" id="Shape" fill="#0D0802" fill-rule="nonzero"></path>
                <path d="M27.944,13.978087 C27.9399665,21.692668 21.6837436,27.9438049 13.9691618,27.9415644 C6.25458001,27.9393239 0.00198922205,21.6845541 0.00243671569,13.969972 C0.00288420933,6.25538987 6.25620058,0.00134552677 13.9707826,7.10542736e-15 C17.677356,0.00064568825 21.2318614,1.47369552 23.852348,4.09509534 C26.4728346,6.71649516 27.9446458,10.2715135 27.944,13.978087" id="Path" fill="#E9511E"></path>
                <path d="M21.7864348,4.21217391 C23.4907826,5.71930435 22.9186087,7.18017391 21.4723478,8.87478261 C22.064,6.41565217 16.9558261,6.09913043 19.7266087,2.856 L21.7864348,4.21217391 Z" id="Path" fill="#FFFFFF"></path>
                <path d="M26.0643478,6.99269565 C25.2973913,9.23756522 23.541913,9.68556522 21.1606957,9.60034783 C23.9363478,8.5533913 21.9714783,4.41913043 26.5172174,4.57008696 L26.0643478,6.99269565 Z" id="Path" fill="#0D0802"></path>
                <path d="M9.35930435,14.9593043 C9.35930435,13.7784348 9.11582609,13.4448696 8.94295652,13.2793043 C8.69947826,13.0772174 8.456,13.0942609 8.456,12.6146087 C8.456,11.2486957 12.9384348,10.7325217 12.9749565,10.7325217 C13.4253913,10.7325217 13.461913,11.1391304 13.461913,11.5262609 C13.461913,11.7478261 13.3888696,12.376 13.7686957,12.376 C13.9488696,12.376 14.2386087,11.9693913 14.7426087,11.5457391 C15.3889641,11.0108492 16.2045802,10.7234416 17.0434783,10.7349565 C19.1933913,10.7349565 19.2128696,12.3784348 19.5926957,12.3784348 C19.7363478,12.3784348 20.0626087,11.9718261 20.586087,11.5481739 C21.2066209,11.0424566 21.9771736,10.7564959 22.7773913,10.7349565 C24.4890435,10.7349565 25.5652174,11.6869565 25.5652174,13.5008696 L25.5652174,17.3965217 C25.5652174,18.4678261 26.2347826,18.5603478 26.2347826,19.1008696 C26.2347826,20.2646957 24.1749565,20.3182609 23.4688696,20.3182609 C22.8723478,20.3182609 20.776,20.1892174 20.776,19.229913 C20.776,18.5481739 21.4090435,18.5652174 21.4090435,17.4963478 L21.4090435,15.826087 C21.4090435,15.0518261 21.4991304,13.5008696 20.4692174,13.5008696 C19.4393043,13.5008696 19.5464348,14.7547826 19.5464348,15.4486957 L19.5464348,16.5930435 C19.5464348,18.8622609 20.1965217,18.4751304 20.1965217,19.1568696 C20.1965217,20.3012174 18.0271304,20.3206957 17.3770435,20.3206957 C14.6476522,20.3206957 14.5015652,19.8045217 14.5210435,19.2883478 C14.538087,18.3144348 15.4438261,19.0862609 15.3878261,16.890087 L15.3878261,15.826087 C15.3878261,15.1613913 15.477913,13.5008696 14.448,13.5008696 C13.418087,13.5008696 13.5252174,14.7547826 13.5252174,15.4486957 L13.5252174,16.9436522 C13.5252174,18.648 14.0121739,18.5311304 14.0121739,19.1933913 C14.0121739,19.6803478 13.5958261,20.3182609 11.1196522,20.3182609 C10.416,20.3182609 8.28069565,20.3377391 8.28069565,19.3589565 C8.28069565,18.5286957 9.3666087,18.9718261 9.3666087,16.666087 L9.3666087,14.9617391 L9.35930435,14.9593043 Z" id="Path" fill="#FFFFFF"></path>
            </g>
        </g>
    </g>
</svg>